#!OML:ASF H:\Terrain\Patient Classification 1\Takeo\Monday\TakeoMonday.ASF
:FULLY-SPECIFIED
:DEGREES
212
root 11.6659 17.318 -2.23028 42.4746 -47.7856 -18.8317
lowerback 23.8719 0.610717 -1.29155
upperback 11.6847 -0.131026 -2.29792
thorax -0.458279 -0.275873 -1.7012
lowerneck -12.1 8.51322 1.80787
upperneck -11.6818 10.7015 -8.47418
head -1.10908 5.36717 -2.68188
rclavicle -7.15625e-014 -7.95139e-016
rhumerus 21.385 58.8619 -89.341
rradius 34.8736
rwrist -37.9804
rhand -36.5952 4.79242
rfingers 7.12502
rthumb -9.68411 -24.965
lclavicle -7.15625e-014 -7.95139e-016
lhumerus 24.5257 0.433728 93.0764
lradius 32.8987
lwrist 45.3365
lhand -39.2656 32.705
lfingers 7.12502
lthumb -12.2598 62.3256
rfemur -39.7741 13.4761 17.9757
rtibia 23.6014
rfoot -9.56528 -5.47891
rtoes -16.8222
lfemur -63.1194 22.5352 -20.4119
ltibia 42.6853
lfoot -6.64181 11.6734
ltoes 4.06768
213
root 11.6646 17.3276 -2.23264 42.1739 -47.8619 -18.6489
lowerback 23.8474 0.627853 -1.51314
upperback 11.7979 -0.160186 -2.38386
thorax -0.321301 -0.299301 -1.66152
lowerneck -12.2287 8.52571 1.96873
upperneck -11.7267 10.6799 -8.75612
head -1.07789 5.34923 -2.79748
rclavicle 1.59028e-015 -3.18055e-015
rhumerus 21.7755 59.0931 -88.9954
rradius 34.7312
rwrist -38.2842
rhand -36.6427 4.76478
rfingers 7.12502
rthumb -9.7299 -24.9905
lclavicle 1.59028e-015 -3.18055e-015
lhumerus 24.6695 0.222807 92.8031
lradius 32.6908
lwrist 46.0703
lhand -39.8332 32.5397
lfingers 7.12502
lthumb -12.807 62.1268
rfemur -39.5473 13.6231 17.7343
rtibia 23.4806
rfoot -9.54881 -5.38321
rtoes -18.0177
lfemur -62.9101 22.5765 -20.5721
ltibia 42.5829
lfoot -6.57293 11.7237
ltoes 3.36684
214
root 11.6623 17.3316 -2.2355 41.9913 -47.7933 -18.4383
lowerback 23.54 0.591998 -1.5636
upperback 11.9364 -0.206267 -2.43034
thorax -0.0206315 -0.324037 -1.67229
lowerneck -12.3671 8.52952 2.11079
upperneck -11.8116 10.6452 -9.04292
head -1.05968 5.32568 -2.91406
rclavicle 2.22639e-014 -4.77083e-015
rhumerus 22.1972 59.1897 -88.6924
rradius 34.6394
rwrist -38.6714
rhand -36.504 4.69227
rfingers 7.12502
rthumb -9.59615 -25.0692
lclavicle 2.22639e-014 -4.77083e-015
lhumerus 24.8817 0.0814624 92.7122
lradius 32.4751
lwrist 46.5498
lhand -40.5138 32.1694
lfingers 7.12502
lthumb -13.463 61.7143
rfemur -39.4449 13.6207 17.5807
rtibia 23.2894
rfoot -9.44955 -5.20149
rtoes -19.6493
lfemur -62.8715 22.5543 -20.7619
ltibia 42.4587
lfoot -6.52745 11.6557
ltoes 2.92787
215
root 11.6631 17.3328 -2.24186 41.736 -47.3764 -18.4292
lowerback 23.5408 0.44689 -1.15684
upperback 11.9885 -0.307539 -2.42248
thorax 0.0331551 -0.355972 -1.87244
lowerneck -12.3681 8.52106 2.22899
upperneck -11.7895 10.6271 -8.95483
head -1.05206 5.31056 -2.90501
rclavicle -3.65764e-014 1.66979e-014
rhumerus 21.979 59.1927 -88.9475
rradius 34.7805
rwrist -39.0804
rhand -36.6511 4.07523
rfingers 7.12502
rthumb -9.73803 -25.6796
lclavicle -3.65764e-014 1.66979e-014
lhumerus 24.8498 0.175916 92.8576
lradius 32.269
lwrist 46.3597
lhand -41.0265 31.5305
lfingers 7.12502
lthumb -13.9572 61.042
rfemur -39.0679 13.5552 17.787
rtibia 23.1636
rfoot -9.54556 -5.10769
rtoes -19.3976
lfemur -62.5826 22.3864 -20.454
ltibia 42.2938
lfoot -6.42255 11.558
ltoes 3.5208
216
root 11.6656 17.343 -2.24234 41.3008 -47.1005 -18.1383
lowerback 23.5778 0.324222 -0.887267
upperback 11.9521 -0.409118 -2.51681
thorax -0.0290637 -0.388653 -2.10386
lowerneck -12.1753 8.53662 2.65197
upperneck -11.8014 10.5951 -9.15209
head -1.05274 5.2834 -3.05289
rclavicle -3.18055e-014 -1.43125e-014
rhumerus 21.6685 59.1995 -89.2651
rradius 34.7413
rwrist -39.2551
rhand -36.7167 4.23878
rfingers 7.12502
rthumb -9.80132 -25.5131
lclavicle -3.18055e-014 -1.43125e-014
lhumerus 24.6627 0.0344113 92.8319
lradius 32.0938
lwrist 46.2884
lhand -41.6687 31.2761
lfingers 7.12502
lthumb -14.576 60.7439
rfemur -38.7452 13.3725 17.7252
rtibia 23.1443
rfoot -9.76612 -4.94904
rtoes -17.3474
lfemur -62.2713 22.1729 -20.4427
ltibia 42.0799
lfoot -6.15233 11.537
ltoes 3.39153
217
root 11.6619 17.3511 -2.25494 40.8601 -47.0054 -17.7658
lowerback 23.5266 0.344905 -0.986679
upperback 11.935 -0.397849 -2.54094
thorax -0.0225082 -0.384817 -2.07562
lowerneck -12.1378 8.49297 2.66911
upperneck -11.7155 10.5382 -9.19318
head -1.03018 5.25363 -3.07078
rclavicle 0 -4.21423e-014
rhumerus 21.8046 59.44 -89.0102
rradius 34.5339
rwrist -39.3894
rhand -36.7059 4.54826
rfingers 7.12502
rthumb -9.79094 -25.2041
lclavicle 0 -4.21423e-014
lhumerus 24.6993 -0.28932 92.6613
lradius 31.8087
lwrist 46.0675
lhand -40.7384 31.5571
lfingers 7.12502
lthumb -13.6795 61.0875
rfemur -38.5458 13.5622 17.3627
rtibia 23.0581
rfoot -10.0415 -5.03789
rtoes -16.0029
lfemur -62.0091 21.9996 -20.5524
ltibia 41.8568
lfoot -5.91825 11.4267
ltoes 2.74944
